<svg width="431.52749023437497px" height="121.40498046875px" xmlns="http://www.w3.org/2000/svg" viewBox="34.23625488281252 14.297509765625001 431.52749023437497 121.40498046875" style="background: none;" preserveAspectRatio="xMidYMid"><defs><filter id="editing-extrusion" x="-100%" y="-100%" width="300%" height="300%"><feFlood result="color1" flood-color="#250d53"></feFlood><feConvolveMatrix order="8,8" divisor="1" kernelMatrix="1 0 0 0 0 0 0 0 0 1 0 0 0 0 0 0 0 0 1 0 0 0 0 0 0 0 0 1 0 0 0 0 0 0 0 0 1 0 0 0 0 0 0 0 0 1 0 0 0 0 0 0 0 0 1 0 0 0 0 0 0 0 0 1" in="SourceAlpha" result="extrude"></feConvolveMatrix><feComposite in="color1" in2="extrude" result="comp-extrude" operator="in"></feComposite><feOffset dx="4" dy="4" in="comp-extrude" result="offset-extrude"></feOffset><feMerge><feMergeNode in="offset-extrude"></feMergeNode><feMergeNode in="SourceGraphic"></feMergeNode></feMerge></filter></defs><g filter="url(#editing-extrusion)"><g transform="translate(100.87875175476074, 97.46500015258789)"><path d="M29.18 1.28L29.18 1.28L29.18 1.28Q20.99 1.28 20.22-10.37L20.22-10.37L9.22-10.37L9.22-10.37Q7.94-7.42 7.04-4.86L7.04-4.86L5.38 0L-3.58 0L16.58-42.24L30.34-42.24L33.02-11.14L33.02-11.14Q33.66-4.42 36.22-2.43L36.22-2.43L36.22-2.43Q34.37 1.28 29.18 1.28ZM14.72-23.17L11.20-15.04L20.03-15.04L19.26-31.49L19.26-33.22L14.72-23.17ZM53.06 0L39.36 0L47.17-42.05L47.17-42.05Q53.50-42.75 62.75-42.75L62.75-42.75L62.75-42.75Q72-42.75 76.29-40.06L76.29-40.06L76.29-40.06Q80.58-37.38 80.58-31.97L80.58-31.97L80.58-31.97Q80.58-26.56 77.79-23.17L77.79-23.17L77.79-23.17Q75.01-19.78 70.21-18.69L70.21-18.69L70.21-18.69Q71.30-13.38 73.79-9.09L73.79-9.09L73.79-9.09Q76.10-5.06 78.78-3.78L78.78-3.78L78.78-3.78Q77.82-1.09 75.87 0.10L75.87 0.10L75.87 0.10Q73.92 1.28 71.14 1.28L71.14 1.28L71.14 1.28Q68.35 1.28 66.18-0.35L66.18-0.35L66.18-0.35Q64-1.98 62.27-4.99L62.27-4.99L62.27-4.99Q58.62-11.52 58.24-21.82L58.24-21.82L58.69-21.82L58.69-21.82Q63.42-21.95 65.79-24.42L65.79-24.42L65.79-24.42Q68.16-26.88 68.16-32.06L68.16-32.06L68.16-32.06Q68.16-38.53 62.72-38.78L62.72-38.78L61.31-38.78L61.31-38.78Q60.74-38.78 60.42-38.72L60.42-38.72L53.06 0ZM88.64-31.17L88.64-31.17L88.64-31.17Q86.46-32.83 86.46-36.38L86.46-36.38L86.46-36.38Q86.46-39.94 88.80-41.79L88.80-41.79L88.80-41.79Q91.14-43.65 95.17-43.65L95.17-43.65L95.17-43.65Q97.73-43.65 103.81-42.75L103.81-42.75L108.16-42.11L108.16-42.11Q110.34-41.86 112.61-41.86L112.61-41.86L112.61-41.86Q114.88-41.86 116.42-42.82L116.42-42.82L116.42-42.82Q118.72-40.77 118.72-37.82L118.72-37.82L118.72-37.82Q118.72-34.88 116.10-32.77L116.10-32.77L116.10-32.77Q113.41-30.53 109.95-30.53L109.95-30.53L109.95-30.53Q108.29-30.53 105.60-30.98L105.60-30.98L105.60-30.98Q102.46-21.12 102.46-14.27L102.46-14.27L102.46-14.27Q102.46-7.42 105.92-3.84L105.92-3.84L105.92-3.84Q104.32-0.96 101.95 0.16L101.95 0.16L101.95 0.16Q99.58 1.28 96.03 1.28L96.03 1.28L96.03 1.28Q92.48 1.28 90.27-0.67L90.27-0.67L90.27-0.67Q88.06-2.62 88.06-6.66L88.06-6.66L88.06-6.66Q88.06-11.33 90.62-19.01L90.62-19.01L90.62-19.01Q93.18-26.62 97.02-32.45L97.02-32.45L97.02-32.45Q95.17-32.64 93.25-32.64L93.25-32.64L93.25-32.64Q89.28-32.64 88.64-31.17ZM154.82-29.57L154.82-29.57L154.82-29.57Q155.78-31.49 155.78-33.28L155.78-33.28L155.78-33.28Q155.78-35.07 155.58-36.06L155.58-36.06L155.58-36.06Q155.39-37.06 154.94-37.82L154.94-37.82L154.94-37.82Q153.98-39.49 152.06-39.49L152.06-39.49L152.06-39.49Q149.70-39.49 147.78-37.76L147.78-37.76L147.78-37.76Q145.73-35.97 145.73-33.15L145.73-33.15L145.73-33.15Q145.73-31.36 146.98-29.98L146.98-29.98L146.98-29.98Q148.22-28.61 150.14-27.33L150.14-27.33L150.14-27.33Q152.06-26.05 154.24-24.77L154.24-24.77L154.24-24.77Q156.42-23.49 158.34-21.95L158.34-21.95L158.34-21.95Q162.75-18.43 162.75-13.70L162.75-13.70L162.75-13.70Q162.75-10.50 161.06-7.78L161.06-7.78L161.06-7.78Q159.36-5.06 156.54-3.07L156.54-3.07L156.54-3.07Q150.40 1.28 142.27 1.28L142.27 1.28L142.27 1.28Q135.68 1.28 132.29-0.86L132.29-0.86L132.29-0.86Q128.90-3.01 128.90-6.27L128.90-6.27L128.90-6.27Q128.90-12.10 133.44-13.57L133.44-13.57L133.44-13.57Q134.72-14.02 136.67-14.02L136.67-14.02L136.67-14.02Q138.62-14.02 140.86-13.18L140.86-13.18L140.86-13.18Q139.84-10.56 139.84-8.19L139.84-8.19L139.84-8.19Q139.84-3.07 143.49-3.07L143.49-3.07L143.49-3.07Q145.86-3.07 147.81-4.80L147.81-4.80L147.81-4.80Q149.76-6.53 149.76-8.48L149.76-8.48L149.76-8.48Q149.76-10.43 148.51-11.84L148.51-11.84L148.51-11.84Q147.26-13.25 145.41-14.37L145.41-14.37L145.41-14.37Q143.55-15.49 141.41-16.58L141.41-16.58L141.41-16.58Q139.26-17.66 137.41-19.20L137.41-19.20L137.41-19.20Q133.06-22.72 133.06-28.35L133.06-28.35L133.06-28.35Q133.06-32 134.85-34.85L134.85-34.85L134.85-34.85Q136.64-37.70 139.52-39.62L139.52-39.62L139.52-39.62Q145.28-43.52 152.35-43.52L152.35-43.52L152.35-43.52Q159.42-43.52 162.85-41.41L162.85-41.41L162.85-41.41Q166.27-39.30 166.27-35.71L166.27-35.71L166.27-35.71Q166.27-32.58 163.84-30.59L163.84-30.59L163.84-30.59Q161.73-28.93 159.17-28.93L159.17-28.93L159.17-28.93Q156.61-28.93 154.82-29.57ZM191.49-4.80L191.49-4.80L191.49-4.80Q191.49-9.28 193.28-18.24L193.28-18.24L183.81-18.24L180.29 0L166.91 0L175.04-42.24L188.54-42.24L184.83-23.36L194.30-23.36L197.82-42.24L211.33-42.24L211.33-42.24Q210.43-37.50 209.28-32.19L209.28-32.19L207.10-21.76L207.10-21.76Q204.67-9.60 204.67-4.29L204.67-4.29L204.67-4.29Q204.67-2.11 205.38-0.90L205.38-0.90L205.38-0.90Q202.18 1.28 198.43 1.28L198.43 1.28L198.43 1.28Q194.69 1.28 193.09-0.51L193.09-0.51L193.09-0.51Q191.49-2.30 191.49-4.80ZM213.82-15.62L213.82-15.62L213.82-15.62Q213.82-27.71 220.10-35.33L220.10-35.33L220.10-35.33Q226.75-43.58 238.34-43.58L238.34-43.58L238.34-43.58Q246.72-43.58 250.94-39.52L250.94-39.52L250.94-39.52Q255.17-35.46 255.17-26.88L255.17-26.88L255.17-26.88Q255.17-13.82 248.51-6.21L248.51-6.21L248.51-6.21Q241.92 1.28 230.85 1.28L230.85 1.28L230.85 1.28Q222.21 1.28 218.02-3.04L218.02-3.04L218.02-3.04Q213.82-7.36 213.82-15.62ZM230.66-28.86L230.66-28.86L230.66-28.86Q227.78-17.34 227.78-8.26L227.78-8.26L227.78-8.26Q227.78-6.08 228.51-4.67L228.51-4.67L228.51-4.67Q229.25-3.26 231.20-3.26L231.20-3.26L231.20-3.26Q233.15-3.26 234.37-4.19L234.37-4.19L234.37-4.19Q235.58-5.12 236.54-7.23L236.54-7.23L236.54-7.23Q238.08-10.69 239.52-18.02L239.52-18.02L239.52-18.02Q240.96-25.34 241.09-28.38L241.09-28.38L241.09-28.38Q241.22-31.42 241.22-33.73L241.22-33.73L241.22-33.73Q241.22-36.03 240.51-37.50L240.51-37.50L240.51-37.50Q239.81-38.98 237.92-38.98L237.92-38.98L237.92-38.98Q236.03-38.98 234.75-37.82L234.75-37.82L234.75-37.82Q232.38-35.65 230.66-28.86ZM283.33-42.69L283.33-42.69L283.33-42.69Q299.01-42.69 299.01-31.62L299.01-31.62L299.01-31.62Q299.01-25.54 295.10-21.89L295.10-21.89L295.10-21.89Q291.26-18.24 284.54-18.24L284.54-18.24L284.54-18.24Q281.41-18.24 278.98-20.03L278.98-20.03L278.98-20.03Q277.82-20.80 277.06-21.82L277.06-21.82L277.06-21.82Q281.73-21.82 284.19-24.67L284.19-24.67L284.19-24.67Q286.66-27.52 286.66-33.09L286.66-33.09L286.66-33.09Q286.66-38.66 281.15-38.66L281.15-38.66L279.62-38.66L279.62-38.66Q279.23-38.66 278.91-38.59L278.91-38.59L271.55 0L257.66 0L265.54-41.92L265.54-41.92Q272.38-42.56 276.35-42.62L276.35-42.62L276.35-42.62Q280.32-42.69 283.33-42.69Z" fill="#ffffff"></path></g></g><style>text {
  font-size: 64px;
  font-family: Arial Black;
  dominant-baseline: central;
  text-anchor: middle;
}</style></svg>