<svg width="281.991259765625px" height="121.40498046875px" xmlns="http://www.w3.org/2000/svg" viewBox="109.0043701171875 14.297509765625001 281.991259765625 121.40498046875" style="background: none;" preserveAspectRatio="xMidYMid"><defs><filter id="editing-extrusion" x="-100%" y="-100%" width="300%" height="300%"><feFlood result="color1" flood-color="#250d53"></feFlood><feConvolveMatrix order="8,8" divisor="1" kernelMatrix="1 0 0 0 0 0 0 0 0 1 0 0 0 0 0 0 0 0 1 0 0 0 0 0 0 0 0 1 0 0 0 0 0 0 0 0 1 0 0 0 0 0 0 0 0 1 0 0 0 0 0 0 0 0 1 0 0 0 0 0 0 0 0 1" in="SourceAlpha" result="extrude"></feConvolveMatrix><feComposite in="color1" in2="extrude" result="comp-extrude" operator="in"></feComposite><feOffset dx="4" dy="4" in="comp-extrude" result="offset-extrude"></feOffset><feMerge><feMergeNode in="offset-extrude"></feMergeNode><feMergeNode in="SourceGraphic"></feMergeNode></feMerge></filter></defs><g filter="url(#editing-extrusion)"><g transform="translate(155.72843626141548, 97.33499908447266)"><path d="M0.45-0.32L0.45-0.32L8.51-42.24L8.51-42.24Q16.06-42.88 20.93-42.88L20.93-42.88L20.93-42.88Q25.79-42.88 28.93-42.46L28.93-42.46L28.93-42.46Q32.06-42.05 34.18-40.96L34.18-40.96L34.18-40.96Q38.40-38.91 38.40-33.28L38.40-33.28L38.40-33.28Q38.40-30.02 35.58-27.26L35.58-27.26L35.58-27.26Q32.96-24.77 30.08-24.19L30.08-24.19L30.08-24.19Q33.15-23.68 35.33-21.38L35.33-21.38L35.33-21.38Q37.63-18.94 37.63-15.17L37.63-15.17L37.63-15.17Q37.63-7.87 32.19-3.62L32.19-3.62L32.19-3.62Q26.75 0.64 16.06 0.64L16.06 0.64L16.06 0.64Q8.70 0.64 0.45-0.32ZM17.86-20.61L14.66-4.03L14.66-4.03Q15.23-3.97 15.36-3.97L15.36-3.97L15.94-3.97L15.94-3.97Q21.18-3.97 23.42-7.42L23.42-7.42L23.42-7.42Q25.09-10.11 25.09-15.04L25.09-15.04L25.09-15.04Q25.09-17.66 23.39-19.07L23.39-19.07L23.39-19.07Q21.70-20.48 17.86-20.61L17.86-20.61ZM27.58-33.22L27.58-33.22L27.58-33.22Q27.58-38.53 22.46-38.53L22.46-38.53L21.89-38.53L21.89-38.53Q21.63-38.53 21.25-38.46L21.25-38.46L18.69-24.96L19.33-24.96L19.33-24.96Q27.58-25.15 27.58-33.22ZM68.61-9.86L68.61-9.86L68.61-9.86Q69.82-8.32 69.82-5.34L69.82-5.34L69.82-5.34Q69.82-2.37 67.55-0.54L67.55-0.54L67.55-0.54Q65.28 1.28 61.31 1.28L61.31 1.28L61.31 1.28Q59.01 1.28 55.42 0.77L55.42 0.77L55.42 0.77Q48.38-0.32 46.37-0.32L46.37-0.32L46.37-0.32Q44.35-0.32 43.52-0.22L43.52-0.22L43.52-0.22Q42.69-0.13 41.34 0L41.34 0L49.09-42.24L63.10-42.24L56.70-7.04L56.70-7.04Q57.54-6.91 58.30-6.91L58.30-6.91L59.90-6.91L59.90-6.91Q65.28-6.91 68.61-9.86ZM75.01-9.47L75.01-9.47L75.01-9.47Q75.01-11.97 75.65-15.17L75.65-15.17L80.83-42.24L94.98-42.24L89.86-14.98L89.86-14.98Q89.28-11.97 89.28-9.76L89.28-9.76L89.28-9.76Q89.28-7.55 90.21-6.40L90.21-6.40L90.21-6.40Q91.14-5.25 92.86-5.25L92.86-5.25L92.86-5.25Q94.59-5.25 95.68-5.70L95.68-5.70L95.68-5.70Q96.77-6.14 97.66-7.23L97.66-7.23L97.66-7.23Q99.39-9.41 100.48-14.98L100.48-14.98L105.66-42.24L115.33-42.24L110.21-15.04L110.21-15.04Q108.42-5.95 103.49-2.30L103.49-2.30L103.49-2.30Q98.69 1.28 89.22 1.28L89.22 1.28L89.22 1.28Q82.11 1.28 78.34-1.79L78.34-1.79L78.34-1.79Q75.01-4.48 75.01-9.47ZM143.94-9.86L143.94-9.86L143.94-9.86Q145.15-8.32 145.15-5.82L145.15-5.82L145.15-5.82Q145.15-2.37 142.59-0.54L142.59-0.54L142.59-0.54Q140.03 1.28 136 1.28L136 1.28L136 1.28Q133.70 1.28 130.18 0.77L130.18 0.77L130.18 0.77Q123.26-0.32 121.15-0.32L121.15-0.32L121.15-0.32Q119.04-0.32 118.21-0.22L118.21-0.22L118.21-0.22Q117.38-0.13 116.03 0L116.03 0L123.90-42.24L151.49-42.24L151.49-42.24Q151.49-38.34 149.60-36.29L149.60-36.29L149.60-36.29Q147.71-34.24 144-34.24L144-34.24L144-34.24Q140.29-34.24 136.51-35.97L136.51-35.97L134.53-24.77L145.92-24.77L145.92-24.77Q145.92-21.38 144.26-19.49L144.26-19.49L144.26-19.49Q142.59-17.60 139.81-17.60L139.81-17.60L139.81-17.60Q137.02-17.60 135.30-18.24L135.30-18.24L135.30-18.24Q133.57-18.88 133.38-19.07L133.38-19.07L131.07-6.98L131.07-6.98Q132.61-6.78 135.49-6.78L135.49-6.78L135.49-6.78Q140.42-6.78 143.94-9.86ZM157.12 0L160.83-18.82L160.83-18.82Q158.98-36.16 152.45-39.87L152.45-39.87L152.45-39.87Q153.79-41.54 155.97-42.46L155.97-42.46L155.97-42.46Q158.14-43.39 160.77-43.39L160.77-43.39L160.77-43.39Q163.39-43.39 165.38-42.46L165.38-42.46L165.38-42.46Q167.36-41.54 168.64-39.55L168.64-39.55L168.64-39.55Q171.07-35.78 171.07-26.75L171.07-26.75L171.07-22.14L171.07-22.14Q174.91-33.41 178.75-38.27L178.75-38.27L178.75-38.27Q182.66-43.26 187.52-43.26L187.52-43.26L187.52-43.26Q189.44-43.26 190.72-42.27L190.72-42.27L190.72-42.27Q192-41.28 192.64-39.81L192.64-39.81L192.64-39.81Q187.71-37.63 182.98-31.36L182.98-31.36L182.98-31.36Q178.24-25.09 175.17-16.32L175.17-16.32L171.39 0L157.12 0Z" fill="#ffffff"></path></g></g><style>text {
  font-size: 64px;
  font-family: Arial Black;
  dominant-baseline: central;
  text-anchor: middle;
}</style></svg>